<svg width="264" height="60" viewBox="0 0 264 60" fill="none" xmlns="http://www.w3.org/2000/svg">
<g clip-path="url(#clip0)">
<path d="M38.4 39.4C38.4 49.7 29.3 55 20.3 55C13.2 55 7.8 51.7 4.5 47.8L2.9 54.2H0V39.3H3.2C6.3 46.1 13 49.3 18.5 49.3C23 49.3 26.8 47.1 26.8 42.9C26.8 38.1 22.1 36.5 15.7 33.3C9 30.2 1.2 26.5 1.2 16.9C1.2 7.4 8.9 2.1 18 2.1C24.7 2.1 28.9 5.1 31.3 7.6L32.6 2.1H35.5V16.1H32.3C30.2 10.1 24.3 7.5 19.3 7.5C15.3 7.5 12.1 9.2 12.1 12.9C12.1 17.8 17.8 19.6 24.5 22.9C31.5 26.2 38.4 30.5 38.4 39.4Z" fill="#A7A7A7"/>
<path d="M77.5 42.5C74.8 49.9 67.9 54.9 60 54.9C49 54.9 41.4 45.8 41.4 34.4C41.4 23.3 48.3 15.1 58.6 15.1C66.6 15.1 72.5 20 74 27.5L53.2 36.9L53 37.3C55.7 43 60.1 45.7 64.8 45.7C69 45.7 72.8 43.6 76 40.4L77.5 42.5ZM51.6 34L62.6 28.6C61.2 21.6 59 19.4 56 19.4C50.8 19.4 49.5 26.8 51.6 34Z" fill="#A7A7A7"/>
<path d="M143.3 51.3V54H123.5V51.3L125.6 50.8C127.1 50.4 127.7 49.6 127.7 48V30.4C127.7 25.9 125.7 22.9 122 22.9C120.3 22.9 118.1 23.6 115.5 25.2C115.7 26 115.7 26.8 115.7 27.6V48C115.7 49.6 116.2 50.4 117.8 50.8L119.8 51.3V54H100.5V51.3L102.6 50.8C104.1 50.4 104.7 49.6 104.7 48V30.4C104.7 25.9 102.9 23 99.2 23C97.5 23 95.3 23.7 92.7 25.3V48C92.7 49.6 93.3 50.4 94.8 50.8L96.9 51.3V54H77.3V51.3L79.3 50.8C80.9 50.4 81.4 49.6 81.4 48V22.5L77.6 21.4V18.7L90.6 16H92.2V21.8H92.5C93.9 19.9 97.4 15.3 104.3 15.3C109.6 15.3 112.9 18.1 114.5 21.8H114.8C116.2 19.9 120.3 15.3 127.2 15.3C135.1 15.3 139 21.5 139 27.6V48C139 49.6 139.5 50.4 141.1 50.8L143.3 51.3Z" fill="#A7A7A7"/>
<path d="M181.3 53.3C179.2 54.2 176.8 54.7 174.5 54.7C170.6 54.7 167.6 53.3 166.4 49.7H166C164.3 53.3 160.3 54.9 156.3 54.9C150.7 54.9 144.9 51.2 144.9 43.1C144.9 33.3 154 31.4 166.1 29.2C166.1 23.4 161.9 20.9 157.3 20.9C154.3 20.9 151.2 21.9 148.8 23.6L147.1 21.3C151.6 17.1 157.5 14.9 162.8 14.9C170.8 14.9 177.2 19.8 177.2 29.6V46.1C177.2 48.1 176.9 51.3 181.4 50.7V53.3H181.3ZM165.9 44.9V32.6C159.2 34.2 156.2 35.3 156.2 40.7C156.2 45.7 158.5 48.1 161.9 48.1C164.1 48.2 165.9 46.9 165.9 44.9Z" fill="#A7A7A7"/>
<path d="M221.8 48C221.8 49.6 222.3 50.4 223.9 50.8L225.9 51.3V54H206.1V51.3L208.2 50.8C209.7 50.4 210.3 49.6 210.3 48V30.4C210.3 25.9 208.6 22.9 205 22.9C203.3 22.9 201.1 23.6 198.6 25.2V48C198.6 49.6 199.2 50.4 200.7 50.8L202.8 51.3V54H183V51.3L185 50.8C186.6 50.4 187.1 49.6 187.1 48V22.5L183.3 21.4V18.7L196.3 16H197.9V21.8H198.2C199.6 19.9 202.9 15.3 209.7 15.3C217.6 15.3 221.5 21.5 221.5 27.6V48H221.8Z" fill="#A7A7A7"/>
<path d="M264 53.3C261.9 54.2 259.5 54.7 257.2 54.7C253.3 54.7 250.3 53.3 249.1 49.7H248.7C247 53.3 243 54.9 239 54.9C233.4 54.9 227.6 51.2 227.6 43.1C227.6 33.3 236.7 31.4 248.8 29.2C248.8 23.4 244.6 20.9 240 20.9C237 20.9 233.9 21.9 231.5 23.6L229.8 21.3C234.3 17.1 240.2 14.9 245.5 14.9C253.5 14.9 259.9 19.8 259.9 29.6V46.1C259.9 48.1 259.6 51.3 264.1 50.7V53.3H264ZM248.6 44.9V32.6C241.9 34.2 238.9 35.3 238.9 40.7C238.9 45.7 241.2 48.1 244.6 48.1C246.9 48.2 248.6 46.9 248.6 44.9Z" fill="#A7A7A7"/>
</g>
<defs>
<clipPath id="clip0">
<rect width="264" height="60" fill="white"/>
</clipPath>
</defs>
</svg>
